<svg xmlns="http://www.w3.org/2000/svg" width="178" height="40" fill="none" viewBox="0 0 178 40"><path fill="#0085DB" d="M17.847 28.958c-2.05 1.27-3.634.6-4.982-1.169-.31-.408-.724-.738-1.09-1.105-1.823-1.822-1.876-2.108-.762-4.534 1.758-3.504 3.453-6.887 5.148-10.27 1.7-2.473 3.58-4.76 6.241-6.284 3.845-2.202 7.963-2.665 12.263-1.955.95.157 1.566.775 1.715 1.725 1.16 7.42-1.14 13.988-8.153 18.348-.805.468-1.47.914-2.182 1.265-2.724 1.343-5.464 2.655-8.198 3.979m8.36-18.78c-.705 1.361-.578 2.574.358 3.414.894.802 2.297.886 3.27.194 1.21-.86 1.46-2.527.553-3.677-1.029-1.304-2.72-1.328-4.182.07"/><path fill="#5AC8FA" fill-rule="evenodd" d="M11.017 22.073c1.754-3.427 3.449-6.81 5.048-10.2q-.914-.005-1.798 0c-1.045.004-2.065.008-3.085-.016-1.877-.043-3.283.757-4.254 2.315a161 161 0 0 0-3.257 5.438c-.795 1.396-.14 2.485 1.46 2.5 1.942.019 3.884.005 5.886-.037m13.034 3.885c-2.065 1.01-4.134 2.023-6.197 3.1q.004 1.04 0 2.05c-.002 1.242-.004 2.457.021 3.67.035 1.64 1.252 2.427 2.568 1.656a132 132 0 0 0 5.399-3.327c1.295-.846 2.213-2 2.267-3.641.061-1.903.097-3.806.072-5.698-.315.172-.615.35-.908.524a18 18 0 0 1-1.228.687z" clip-rule="evenodd"/><path fill="#111C2D" d="M55.403 28.33q-1.739 0-3.135-.605a5.9 5.9 0 0 1-2.288-1.727q-.891-1.133-1.133-2.684l2.75-.418q.352 1.408 1.441 2.178 1.1.77 2.53.77.847 0 1.595-.264t1.21-.77q.473-.506.473-1.243 0-.33-.11-.605a1.4 1.4 0 0 0-.33-.506 2 2 0 0 0-.55-.396 3.7 3.7 0 0 0-.77-.319l-4.092-1.21a12 12 0 0 1-1.144-.407 5 5 0 0 1-1.155-.715 3.7 3.7 0 0 1-.891-1.166q-.34-.715-.341-1.76 0-1.53.77-2.563.78-1.045 2.09-1.562 1.32-.517 2.926-.506 1.628.01 2.904.561 1.276.54 2.134 1.573.858 1.035 1.21 2.497l-2.849.495a3.1 3.1 0 0 0-.682-1.419 3.2 3.2 0 0 0-1.221-.902 4.1 4.1 0 0 0-3.003-.088q-.67.242-1.089.704a1.58 1.58 0 0 0-.407 1.078q0 .584.352.957.352.363.869.583.528.21 1.067.352l2.838.792q.583.154 1.309.418t1.397.737 1.1 1.243q.44.77.44 1.958 0 1.232-.517 2.167a4.54 4.54 0 0 1-1.375 1.54q-.87.616-1.991.924a8.7 8.7 0 0 1-2.332.308m14.085 0q-1.738 0-2.915-.825t-1.771-2.244q-.594-1.43-.594-3.201 0-1.793.594-3.212t1.738-2.233q1.155-.825 2.849-.825 1.683 0 2.915.825 1.243.814 1.925 2.233.682 1.409.682 3.212 0 1.782-.671 3.201-.67 1.419-1.892 2.244-1.22.825-2.86.825m-5.731 4.95V16.12H66.1v8.338h.33v8.822zm5.324-7.326q1.035 0 1.705-.517t.99-1.397q.33-.891.33-1.98 0-1.078-.33-1.958-.33-.89-1.023-1.408-.693-.528-1.76-.528-1.012 0-1.65.495-.637.484-.946 1.364-.297.87-.297 2.035 0 1.155.297 2.035.308.88.957 1.375.66.484 1.727.484m8.255-11.638v-2.431h2.65v2.431zm0 13.684V16.12h2.65V28zm5.704 0 .022-15.84h2.684v9.68l4.345-5.72h3.31l-4.608 5.94L93.798 28h-3.51l-4.542-5.72V28zm16.826.33q-1.804 0-3.168-.781a5.56 5.56 0 0 1-2.134-2.167q-.76-1.386-.76-3.19 0-1.947.749-3.377.747-1.44 2.079-2.233 1.33-.792 3.08-.792 1.848 0 3.135.869 1.298.858 1.925 2.431t.473 3.707h-2.629v-.968q-.012-1.936-.682-2.827-.672-.891-2.112-.891-1.629 0-2.42 1.012-.792 1-.792 2.937 0 1.804.792 2.794t2.31.99q.978 0 1.683-.429.714-.44 1.1-1.265l2.618.792q-.683 1.605-2.112 2.497a5.8 5.8 0 0 1-3.135.891m-4.092-5.533v-2.002h8.173v2.002zM110.563 28l4.994-15.84h3.883L124.434 28h-2.728l-4.532-14.212h.594L113.291 28zm2.783-3.432v-2.475h8.316v2.475zm17.62 3.762q-1.64 0-2.86-.825-1.221-.825-1.892-2.244t-.671-3.201q0-1.804.671-3.212.682-1.419 1.925-2.233 1.243-.825 2.926-.825 1.693 0 2.838.825 1.155.814 1.749 2.233t.594 3.212q0 1.77-.594 3.201-.594 1.419-1.771 2.244t-2.915.825m.407-2.376q1.067 0 1.716-.484.66-.495.957-1.375.308-.88.308-2.035 0-1.166-.308-2.035-.297-.88-.935-1.364-.637-.495-1.65-.495-1.067 0-1.76.528-.693.517-1.023 1.408-.33.88-.33 1.958 0 1.089.319 1.98.33.88 1.001 1.397t1.705.517M134.354 28v-8.338h-.33V12.16h2.673V28zm19.474 0v-7.216q0-1.22-.605-1.903-.604-.693-1.639-.693a2.2 2.2 0 0 0-1.144.297q-.506.286-.803.858-.297.56-.297 1.342l-1.177-.693q-.01-1.232.55-2.167a4 4 0 0 1 1.54-1.474 4.4 4.4 0 0 1 2.156-.528q1.97 0 3.014 1.188 1.056 1.177 1.056 3.102V28zm-14.289 0V16.12h2.343v3.685h.33V28zm7.161 0v-7.183q0-1.243-.605-1.936t-1.65-.693q-1.011 0-1.628.693-.605.693-.605 1.804l-1.188-.792q0-1.155.572-2.079.573-.924 1.54-1.452.98-.54 2.189-.539 1.332 0 2.222.572a3.4 3.4 0 0 1 1.342 1.54q.451.968.451 2.189V28zm12.648-13.684v-2.431h2.651v2.431zm0 13.684V16.12h2.651V28zm13.943 0v-5.72q0-.56-.077-1.243a4.3 4.3 0 0 0-.363-1.309 2.5 2.5 0 0 0-.836-1.045q-.55-.407-1.496-.407-.506 0-1.001.165t-.902.572q-.395.395-.638 1.1-.242.693-.242 1.782l-1.573-.671q0-1.518.583-2.75a4.7 4.7 0 0 1 1.738-1.958q1.145-.737 2.816-.737 1.32 0 2.178.44t1.364 1.122q.507.682.748 1.452.243.77.308 1.463.077.682.077 1.111V28zm-8.239 0V16.12h2.365v3.685h.319V28z"/></svg>